PathFileType	4	(X/Y/Z)	C:/Users/opensim2020/Desktop/walking_exp_matlab/subject03_walking10_straight_01.trc																																																																																																																																					
DataRate	CameraRate	NumFrames	NumMarkers	Units	OrigDataRate	OrigDataStartFrame	OrigNumFrames																																																																																																																																	
100	100	4	45	mm	100	659	477																																																																																																																																	
Frame#	Time	LFHD			RFHD			LBHD			RBHD			C7			T10			CLAV			STRN			RBAK			LSHO			LUPA			LELB			LFRM			LWRA			LWRB			LFIN			RSHO			RUPA			RELB			RFRM			RWRA			RWRB			RFIN			LASI			RASI			LPSI			RPSI			LTHI			LKNE			LTIB			LANK			LHEE			LTOE			RTHI			RKNE			RTIB			RANK			RHEE			RTOE			*39			*40			*41			*42			*43			*44		
		X1	Y1	Z1	X2	Y2	Z2	X3	Y3	Z3	X4	Y4	Z4	X5	Y5	Z5	X6	Y6	Z6	X7	Y7	Z7	X8	Y8	Z8	X9	Y9	Z9	X10	Y10	Z10	X11	Y11	Z11	X12	Y12	Z12	X13	Y13	Z13	X14	Y14	Z14	X15	Y15	Z15	X16	Y16	Z16	X17	Y17	Z17	X18	Y18	Z18	X19	Y19	Z19	X20	Y20	Z20	X21	Y21	Z21	X22	Y22	Z22	X23	Y23	Z23	X24	Y24	Z24	X25	Y25	Z25	X26	Y26	Z26	X27	Y27	Z27	X28	Y28	Z28	X29	Y29	Z29	X30	Y30	Z30	X31	Y31	Z31	X32	Y32	Z32	X33	Y33	Z33	X34	Y34	Z34	X35	Y35	Z35	X36	Y36	Z36	X37	Y37	Z37	X38	Y38	Z38	X39	Y39	Z39	X40	Y40	Z40	X41	Y41	Z41	X42	Y42	Z42	X43	Y43	Z43	X44	Y44	Z44	X45	Y45	Z45
																																																																																																																																								
1	0	-1406.30249	1621.69373	1332.35071	-1419.93811	1629.39258	1464.09851	-1537.13696	1589.06848	1323.6134	-1546.55225	1595.83325	1453.91089	-1583.95789	1431.33105	1386.19592	-1638.81067	1122.55444	1398.05249	-1463.62939	1349.82678	1387.96484	-1433.05945	1181.20984	1383.34985	-1644.13965	1261.83044	1488.76733	-1509.18433	1387.13867	1232.63416	-1508.97888	1194.27698	1155.16406	-1489.05676	1073.78235	1137.17322	-1446.53125	950.82721	1131.01501	-1412.82446	835.38776	1157.66394	-1436.96045	839.23608	1107.08838	-1410.41882	758.9364	1111.5155	-1509.22559	1380.13574	1547.96936	-1513.38782	1160.80322	1626.67688	-1499.31299	1049.44397	1643.74402	-1482.177	913.57855	1651.05396	-1451.59802	817.48602	1619.49756	-1482.96777	813.26001	1662.88123	-1459.74084	742.69843	1656.12549	-1504.05591	939.65808	1278.97302	-1485.02002	952.16479	1512.99219	-1658.66663	982.20966	1342.09692	-1644.35925	993.57318	1488.6283	-1596.56116	643.8551	1256.87708	-1592.01917	470.46603	1304.53125	-1650.69666	281.05212	1308.68823	-1660.95422	72.14532	1349.79187	-1699.26123	35.05992	1396.6438	-1513.9071	34.53109	1345.23279	-1476.78857	670.42468	1574.16113	-1412.97876	502.29941	1546.64233	-1491.76575	325.80899	1552.47925	-1566.43494	123.33221	1510.60559	-1614.53601	101.70832	1455.15649	-1446.38293	47.48947	1504.32764	NaN	NaN	NaN	NaN	NaN	NaN	NaN	NaN	NaN	NaN	NaN	NaN	NaN	NaN	NaN	NaN	NaN	NaN
2	0.01	-1404.27625	1621.7915	1332.39099	-1418.0675	1629.29724	1464.00195	-1535.29736	1588.82031	1323.43579	-1544.6958	1595.5968	1453.79187	-1581.79651	1431.04187	1385.80176	-1636.15405	1122.19031	1397.50488	-1461.33459	1349.73572	1387.73108	-1431.26294	1180.73926	1382.97595	-1641.90747	1261.4292	1488.18335	-1506.9436	1387.01038	1232.31213	-1505.78174	1194.44849	1154.50879	-1483.97754	1074.04199	1136.3811	-1440.75537	951.2041	1132.13281	-1404.93958	836.60077	1157.58911	-1429.16675	839.93616	1107.02893	-1401.81934	759.98895	1111.61902	-1507.27747	1379.99915	1547.78271	-1512.21362	1160.62927	1626.45508	-1498.61035	1049.27637	1643.61096	-1481.89404	913.37134	1650.91663	-1451.60437	817.04773	1619.23218	-1482.92505	813.04803	1662.72559	-1459.86914	742.25134	1655.79492	-1500.80884	939.52106	1278.48523	-1482.26099	952.11188	1512.62988	-1655.74048	981.84393	1341.64832	-1641.54565	993.18176	1488.14832	-1593.94983	643.36041	1256.50391	-1590.70679	470.52545	1304.21106	-1649.81433	281.07864	1308.448	-1664.85449	70.12769	1352.99182	-1699.27722	35.12791	1396.6322	-1514.06116	34.44255	1345.17029	-1472.81714	670.67029	1573.05774	-1408.84509	502.63882	1545.21765	-1483.66406	324.13678	1551.84351	-1553.1416	119.67026	1510.922	-1600.95313	96.81766	1455.7428	-1431.15198	46.62327	1504.0509	NaN	NaN	NaN	NaN	NaN	NaN	NaN	NaN	NaN	NaN	NaN	NaN	NaN	NaN	NaN	NaN	NaN	NaN
3	0.02	-1402.71094	1621.5896	1332.34058	-1416.24243	1629.22729	1464.04382	-1533.42261	1588.69812	1323.38538	-1542.81042	1595.23669	1453.70813	-1579.56616	1430.74182	1385.42334	-1633.3927	1121.80627	1396.99976	-1458.94568	1349.65308	1387.69067	-1428.51306	1180.83044	1382.63098	-1639.59155	1260.97729	1487.60718	-1504.41675	1386.64136	1232.06018	-1501.74634	1194.2439	1154.09717	-1478.8092	1074.21594	1135.8584	-1434.27209	951.86841	1131.91638	-1398.18384	837.17542	1157.14099	-1421.20923	840.59583	1107.12183	-1393.11682	760.93695	1112.04785	-1505.40515	1379.8385	1547.56665	-1510.96411	1160.4707	1626.29248	-1497.75281	1049.02429	1643.45227	-1481.46057	913.04462	1650.7334	-1451.64478	816.62659	1618.86633	-1482.78064	812.77734	1662.51013	-1460.07056	741.87994	1655.5387	-1497.98547	939.27142	1278.3324	-1479.3075	952.03937	1512.27991	-1652.81421	981.47858	1341.15466	-1638.66882	992.76276	1487.67883	-1591.5592	643.04742	1256.12854	-1589.07849	470.31158	1303.90088	-1648.97998	281.15155	1308.28821	-1661.53247	71.76519	1350.27441	-1699.24146	35.15694	1396.57263	-1515.27661	34.28452	1344.9082	-1469.00342	670.83203	1572.16992	-1404.85571	502.77618	1544.01978	-1475.14368	322.27963	1550.8551	-1539.3894	115.78117	1511.06018	-1586.93799	91.95309	1456.21594	-1415.70557	45.87755	1503.59583	NaN	NaN	NaN	NaN	NaN	NaN	NaN	NaN	NaN	NaN	NaN	NaN	NaN	NaN	NaN	NaN	NaN	NaN
4	0.03	-1400.83459	1621.44312	1332.43652	-1414.39392	1629.05469	1464.08667	-1531.23694	1588.37842	1323.42175	-1540.81958	1594.79114	1453.69006	-1577.1825	1430.40405	1385.07825	-1630.57422	1121.32935	1396.5752	-1456.45776	1349.51074	1387.57764	-1425.57593	1180.69043	1382.8175	-1637.24597	1260.48303	1487.09741	-1500.97339	1386.12207	1231.99121	-1498.10071	1194.07971	1153.56091	-1473.57764	1074.36768	1135.36511	-1427.46814	952.53046	1131.86731	-1389.19885	839.16705	1157.84448	-1413.25964	841.34155	1107.35071	-1384.31213	761.86127	1112.91833	-1503.3064	1379.62158	1547.51221	-1509.59619	1160.22644	1626.18921	-1496.72998	1048.68103	1643.27063	-1480.88794	912.60364	1650.41211	-1451.49597	816.03094	1618.28149	-1482.50024	812.40662	1662.20483	-1460.03223	741.4176	1655.17847	-1494.75122	939.07031	1277.80811	-1476.30615	951.80194	1511.91321	-1649.79639	981.0354	1340.74951	-1635.74255	992.26874	1487.24048	-1588.95752	642.8396	1255.78723	-1587.25317	469.92365	1303.6322	-1648.18469	281.08633	1308.29004	-1660.79419	72.2421	1349.67053	-1699.22266	35.12875	1396.47705	-1513.47607	34.63339	1344.97546	-1465.04651	670.82904	1571.41113	-1401.03882	502.78403	1543.09839	-1467.10583	320.59659	1550.578	-1525.55078	112.33922	1511.3175	-1572.53552	87.1317	1456.62549	-1399.86389	45.24264	1502.8252	NaN	NaN	NaN	NaN	NaN	NaN	NaN	NaN	NaN	NaN	NaN	NaN	NaN	NaN	NaN	NaN	NaN	NaN
